<svg width="240" height="240" viewBox="0 0 240 240" fill="none" xmlns="http://www.w3.org/2000/svg">
<g clip-path="url(#clip0_26_41)">
<path d="M225.546 95.2877H216.036C208.278 95.2877 201.771 88.6019 201.771 80.6665C201.771 76.6675 203.46 73.0435 206.463 70.3567L212.595 64.3582C218.664 58.3598 218.664 48.5499 212.595 42.5514L198.643 28.7425C195.89 25.9932 191.823 24.3687 187.694 24.3687C183.565 24.3687 179.561 25.9932 176.745 28.7425L170.864 34.616C168.049 37.7402 164.295 39.4272 160.228 39.4272C152.22 39.4272 145.525 32.9289 145.525 25.2434V15.6834C145.525 7.24811 138.706 0 130.197 0H111.177C102.669 0 95.9116 7.18563 95.9116 15.6834V25.1809C95.9116 32.8664 89.2172 39.3648 81.209 39.3648C77.2048 39.3648 73.5135 37.6777 70.8232 34.741L64.7544 28.7425C62.0016 25.9307 57.9349 24.3687 53.8056 24.3687C49.6764 24.3687 45.6722 25.9932 42.8568 28.7425L28.7798 42.4889C22.7735 48.4874 22.7735 58.2973 28.7798 64.2333L34.6608 70.1067C37.7891 72.9185 39.5409 76.6675 39.5409 80.6665C39.5409 88.6644 33.0342 95.2877 25.2761 95.2877H15.7663C7.19494 95.2877 0 101.973 0 110.471V119.969V129.466C0 137.902 7.19494 144.65 15.7663 144.65H25.2761C33.0342 144.65 39.5409 151.336 39.5409 159.271C39.5409 163.27 37.7891 167.019 34.6608 169.831L28.7798 175.642C22.7735 181.64 22.7735 191.45 28.7798 197.386L42.7317 211.258C45.4845 214.069 49.5512 215.631 53.6805 215.631C57.8098 215.631 61.8139 214.007 64.6293 211.258L70.6981 205.259C73.3258 202.322 77.0797 200.635 81.0838 200.635C89.0921 200.635 95.7865 207.134 95.7865 214.819V224.317C95.7865 232.752 102.544 240 111.115 240H130.135C138.643 240 145.4 232.814 145.4 224.317V214.819C145.4 207.134 152.095 200.635 160.103 200.635C164.107 200.635 167.861 202.385 170.739 205.447L176.62 211.32C179.435 214.069 183.44 215.694 187.569 215.694C191.698 215.694 195.702 214.069 198.518 211.32L212.47 197.449C218.476 191.45 218.476 181.64 212.47 175.642L206.338 169.643C203.335 166.957 201.646 163.27 201.646 159.334C201.646 151.336 208.153 144.712 215.911 144.712H225.421C233.929 144.712 239.998 138.027 239.998 129.529V119.969V110.471C240.123 101.973 234.054 95.2877 225.546 95.2877ZM170.676 119.969C170.676 147.524 148.341 169.956 120.625 169.956C92.9085 169.956 70.573 147.524 70.573 119.969C70.573 92.4134 92.9085 69.9818 120.625 69.9818C148.341 69.9818 170.676 92.4134 170.676 119.969Z" fill="#FF9655"/>
</g>
<defs>
<clipPath id="clip0_26_41">
<rect width="240" height="240" fill="white"/>
</clipPath>
</defs>
</svg>
